<?xml version="1.0" encoding="utf-8"?>
<!-- Generator: Adobe Illustrator 21.0.0, SVG Export Plug-In . SVG Version: 6.00 Build 0)  -->
<svg version="1.1" id="Layer_1" xmlns="http://www.w3.org/2000/svg" xmlns:xlink="http://www.w3.org/1999/xlink" x="0px" y="0px"
	 viewBox="0 0 512 512" style="enable-background:new 0 0 512 512;" xml:space="preserve">
<style type="text/css">
	.st0{fill:#FFFFFF;}
</style>
<g>
	<path class="st0" d="M503.8,436.4h-11.1c0,0-473.5,0-473.5,0c0,0-11.1,0-11.1,0c-4.5,0-8.2,3.7-8.2,8.2c0,4.5,3.7,8.2,8.2,8.2h4.7
		l4.7,16.5c3.5,12.1,16.1,21.6,28.7,21.6h419.4c12.6,0,25.2-9.5,28.7-21.6l4.7-16.5h4.7c4.5,0,8.2-3.7,8.2-8.2
		C512,440.1,508.3,436.4,503.8,436.4L503.8,436.4z M478.7,464.8c-1.5,5.1-7.6,9.8-13,9.8H46.3c-5.3,0-11.5-4.7-13-9.8l-3.4-12h452.2
		L478.7,464.8z"/>
	<path class="st0" d="M125.2,312.5H140c8.3,20.5,15.5,42.7,15.5,66.7c0,22.5,18.3,40.9,40.9,40.9h119.8c22.5,0,40.9-18.3,40.9-40.9
		c0-32.3,12.9-61.6,26.5-92.7c13.7-31.2,27.9-63.6,27.9-99.3c0-4.5-3.7-8.2-8.2-8.2H24.4c-4.5,0-8.2,3.7-8.2,8.2v16.3
		C16.2,263.6,65.1,312.5,125.2,312.5z M32.6,195.4h318.7c-0.7,10.8-2.9,22.2-6.6,34.4c-1.3,4.3,1.2,8.9,5.5,10.2
		c0.8,0.2,1.6,0.3,2.4,0.3c3.5,0,6.8-2.3,7.8-5.8c4.2-13.8,6.6-26.7,7.3-39.1h27.2c-1.9,29.1-13.8,56.1-26.3,84.5
		c-13.7,31.2-27.9,63.6-27.9,99.3c0,13.5-11,24.5-24.5,24.5H196.3c-13.5,0-24.5-11-24.5-24.5c0-28.9-9.5-55.7-18.8-78
		c-1.3-3.1-4.2-5-7.5-5h-20.3c-51.1,0-92.6-41.5-92.6-92.6L32.6,195.4L32.6,195.4z"/>
	<path class="st0" d="M125.2,279.8h6.2c2.7,0,5.3-1.4,6.8-3.7c1.5-2.3,1.8-5.2,0.7-7.7c-6.9-15.9-13.8-33-17.8-50.3
		c-0.9-3.7-4.2-6.3-8-6.3h-54c-2.5,0-4.9,1.2-6.4,3.1c-1.5,2-2.1,4.6-1.5,7C59.6,256,90,279.8,125.2,279.8z M106.7,228.1
		c3.2,12.1,7.6,23.8,12.2,35.1c-21.4-2.2-39.7-15.7-48.4-35.1H106.7z"/>
	<path class="st0" d="M305,376.5c0.2,0,0.5,0,0.7,0c4.2,0,7.8-3.2,8.1-7.5c2.4-28.4,13.9-54.7,26.1-82.5c2.7-6,5.4-12.3,8-18.5
		c1.7-4.2-0.2-8.9-4.4-10.7c-4.2-1.8-8.9,0.2-10.7,4.4c-2.6,6.1-5.3,12.3-7.9,18.3c-12.2,27.8-24.8,56.6-27.4,87.7
		C297.2,372.2,300.5,376.1,305,376.5z"/>
	<path class="st0" d="M209.7,154.6c0,4.5,3.7,8.2,8.2,8.2s8.2-3.7,8.2-8.2c0-8.4,2-12.3,4.5-17.1c3-5.7,6.4-12.2,6.4-24.7
		c0-12.4-3.4-18.9-6.4-24.7C228,83.3,226,79.5,226,71s2-12.3,4.5-17.1c3-5.7,6.4-12.2,6.4-24.7c0-4.5-3.7-8.2-8.2-8.2
		s-8.2,3.7-8.2,8.2c0,8.4-2,12.3-4.5,17.1c-3,5.7-6.4,12.2-6.4,24.7s3.4,18.9,6.4,24.7c2.5,4.8,4.5,8.7,4.5,17.1
		c0,8.4-2,12.3-4.5,17.1C213.1,135.6,209.7,142.1,209.7,154.6z"/>
	<path class="st0" d="M275.1,154.6c0,4.5,3.7,8.2,8.2,8.2c4.5,0,8.2-3.7,8.2-8.2c0-8.4,2-12.3,4.5-17.1c3-5.7,6.4-12.2,6.4-24.7
		c0-12.4-3.4-18.9-6.4-24.7c-2.5-4.8-4.5-8.7-4.5-17.1s2-12.3,4.5-17.1c3-5.7,6.4-12.2,6.4-24.7c0-4.5-3.7-8.2-8.2-8.2
		c-4.5,0-8.2,3.7-8.2,8.2c0,8.4-2,12.3-4.5,17.1c-3,5.7-6.4,12.2-6.4,24.7s3.4,18.9,6.4,24.7c2.5,4.8,4.5,8.7,4.5,17.1
		c0,8.4-2,12.3-4.5,17.1C278.4,135.6,275.1,142.1,275.1,154.6L275.1,154.6z"/>
</g>
</svg>
