<?xml version='1.0' encoding='iso-8859-1'?>
<svg version="1.1" xmlns="http://www.w3.org/2000/svg" viewBox="0 0 470 470" xmlns:xlink="http://www.w3.org/1999/xlink" enable-background="new 0 0 470 470">
  <g>
    <path d="m462.5,400.625h-10.156c-0.028,0-434.666,0-434.666,0-0.013,0-10.178,0-10.178,0-4.143,0-7.5,3.358-7.5,7.5s3.357,7.5 7.5,7.5h4.343l4.325,15.138c3.182,11.137 14.748,19.862 26.332,19.862h385c11.584,0 23.15-8.725 26.333-19.862l4.325-15.138h4.342c4.143,0 7.5-3.358 7.5-7.5s-3.357-7.5-7.5-7.5zm-23.09,26.017c-1.344,4.702-7.021,8.983-11.91,8.983h-385c-4.89,0-10.566-4.282-11.909-8.983l-3.148-11.017h415.114l-3.147,11.017z"/>
    <path d="m114.91,286.875h13.611c7.589,18.851 14.185,39.232 14.185,61.25 0,20.678 16.822,37.5 37.5,37.5h110c20.678,0 37.5-16.822 37.5-37.5 0-29.653 11.836-56.59 24.366-85.108 12.603-28.681 25.634-58.338 25.634-91.142 0-4.142-3.357-7.5-7.5-7.5h-347.796c-4.143,0-7.5,3.358-7.5,7.5v15c0,55.14 44.86,100 100,100zm-85-107.5h292.519c-0.668,9.951-2.639,20.353-6.018,31.592-1.192,3.967 1.057,8.149 5.023,9.342 0.72,0.216 1.447,0.319 2.162,0.319 3.225,0 6.203-2.096 7.18-5.343 3.818-12.702 6.027-24.523 6.703-35.91h24.977c-1.767,26.74-12.651,51.512-24.117,77.607-12.603,28.682-25.634,58.339-25.634,91.143 0,12.407-10.094,22.5-22.5,22.5h-110c-12.406,0-22.5-10.093-22.5-22.5 0-26.527-8.705-51.092-17.221-71.624-1.162-2.801-3.896-4.626-6.928-4.626h-18.646c-46.869,0-85-38.131-85-85v-7.5z"/>
    <path d="m114.909,256.875h5.654c2.524,0 4.88-1.271 6.268-3.38 1.387-2.109 1.619-4.775 0.617-7.093-6.296-14.578-12.631-30.267-16.318-46.216-0.787-3.401-3.816-5.811-7.308-5.811h-49.593c-2.306,0-4.484,1.061-5.905,2.876-1.422,1.816-1.929,4.185-1.376,6.423 7.743,31.325 35.691,53.201 67.961,53.201zm-16.944-47.5c2.965,11.098 6.942,21.883 11.167,32.2-19.604-2.044-36.477-14.393-44.428-32.2h33.261z"/>
    <path d="m280.005,345.599c0.211,0.018 0.421,0.026 0.63,0.026 3.86,0 7.14-2.963 7.466-6.879 2.17-26.108 12.76-50.21 23.972-75.728 2.438-5.551 4.961-11.291 7.355-16.985 1.606-3.818-0.187-8.215-4.005-9.821-3.819-1.607-8.215,0.187-9.821,4.005-2.35,5.585-4.847,11.27-7.263,16.767-11.214,25.522-22.81,51.914-25.188,80.52-0.342,4.127 2.726,7.752 6.854,8.095z"/>
    <path d="m192.5,141.875c0,4.142 3.357,7.5 7.5,7.5s7.5-3.358 7.5-7.5c0-7.744 1.831-11.253 4.149-15.696 2.742-5.255 5.851-11.213 5.851-22.634 0-11.422-3.108-17.38-5.851-22.637-2.318-4.443-4.149-7.953-4.149-15.698s1.831-11.255 4.149-15.698c2.742-5.256 5.851-11.214 5.851-22.637 0-4.142-3.357-7.5-7.5-7.5s-7.5,3.358-7.5,7.5c0,7.745-1.831,11.255-4.149,15.698-2.742,5.256-5.851,11.214-5.851,22.637s3.108,17.38 5.851,22.637c2.318,4.443 4.149,7.953 4.149,15.698 0,7.744-1.831,11.253-4.149,15.696-2.743,5.255-5.851,11.213-5.851,22.634z"/>
    <path d="m252.5,141.875c0,4.142 3.357,7.5 7.5,7.5s7.5-3.358 7.5-7.5c0-7.744 1.831-11.253 4.149-15.696 2.742-5.255 5.851-11.213 5.851-22.634 0-11.422-3.108-17.38-5.851-22.637-2.318-4.443-4.149-7.953-4.149-15.698s1.831-11.255 4.149-15.698c2.742-5.256 5.851-11.214 5.851-22.637 0-4.142-3.357-7.5-7.5-7.5s-7.5,3.358-7.5,7.5c0,7.745-1.831,11.255-4.149,15.698-2.742,5.256-5.851,11.214-5.851,22.637s3.108,17.38 5.851,22.637c2.318,4.443 4.149,7.953 4.149,15.698 0,7.744-1.831,11.253-4.149,15.696-2.743,5.255-5.851,11.213-5.851,22.634z"/>
  </g>
</svg>
