<?xml version="1.0" encoding="utf-8"?>
<!-- Generator: Adobe Illustrator 21.0.0, SVG Export Plug-In . SVG Version: 6.00 Build 0)  -->
<svg version="1.1" id="Capa_1" xmlns="http://www.w3.org/2000/svg" xmlns:xlink="http://www.w3.org/1999/xlink" x="0px" y="0px"
	 viewBox="0 0 512 512" style="enable-background:new 0 0 512 512;" xml:space="preserve">
<style type="text/css">
	.st0{fill:#FFFFFF;}
</style>
<g>
	<path class="st0" d="M352,480h-80V318.5c34.9-3.6,67.7-17.9,93.2-42.6c60.3-58.3,64.4-207.5,7.4-270.6L367.8,0H144.1l-4.8,5.3
		c-57,63.1-52.9,212.3,7.4,270.6c25.5,24.7,58.2,39,93.2,42.6V480h-80c-8.8,0-16,7.2-16,16s7.2,16,16,16h80h32h80
		c8.8,0,16-7.2,16-16S360.8,480,352,480z M158.8,32h194.5c41.1,53.8,36.4,175.8-10.2,220.9c-46.8,45.3-127,45.3-173.9,0
		C122.4,207.8,117.7,85.8,158.8,32z M180.2,241.4c-23.3-22.5-34.6-68.8-33.3-113.4h218.3c1.3,44.6-10,90.8-33.3,113.4
		C293.1,278.8,218.9,278.8,180.2,241.4z"/>
</g>
</svg>
