<?xml version="1.0" encoding="utf-8"?>
<!-- Generator: Adobe Illustrator 21.0.0, SVG Export Plug-In . SVG Version: 6.00 Build 0)  -->
<svg version="1.1" id="Layer_1" xmlns="http://www.w3.org/2000/svg" xmlns:xlink="http://www.w3.org/1999/xlink" x="0px" y="0px"
	 viewBox="0 0 512 512" style="enable-background:new 0 0 512 512;" xml:space="preserve">
<style type="text/css">
	.st0{fill:#FFFFFF;}
</style>
<g>
	<g>
		<path class="st0" d="M416.9,0H95.1C58.8,0,29.3,29.5,29.3,65.8c0,29.4,19.3,54.3,45.9,62.7L119.4,512h273.2l44.2-383.4
			c26.6-8.5,45.9-33.4,45.9-62.7C482.7,29.5,453.2,0,416.9,0z M353.5,468.1H158.5l-38.8-336.5h272.6L353.5,468.1z M416.9,87.8H95.1
			c-12.1,0-21.9-9.8-21.9-21.9S83,43.9,95.1,43.9h321.8c12.1,0,21.9,9.8,21.9,21.9C438.9,77.9,429,87.8,416.9,87.8z"/>
	</g>
</g>
</svg>
