<?xml version="1.0" encoding="utf-8"?>
<!-- Generator: Adobe Illustrator 21.0.0, SVG Export Plug-In . SVG Version: 6.00 Build 0)  -->
<svg version="1.1" id="Capa_1" xmlns="http://www.w3.org/2000/svg" xmlns:xlink="http://www.w3.org/1999/xlink" x="0px" y="0px"
	 viewBox="0 0 512 512" style="enable-background:new 0 0 512 512;" xml:space="preserve">
<style type="text/css">
	.st0{fill:#FFFFFF;}
</style>
<path class="st0" d="M404.2,27.8c0.7-7.1-1.6-14.2-6.4-19.5C393,3,386.2,0,379,0H133c-7.1,0-13.9,3-18.7,8.3s-7.1,12.4-6.4,19.5
	L147.2,418c0,0,0,0.1,0,0.1l7.2,71.2c1.3,12.9,12.2,22.7,25.1,22.7h152.9c13,0,23.8-9.8,25.1-22.7l7.2-71.2c0,0,0-0.1,0-0.1
	L404.2,27.8z M351.1,50.5l-34.3,339.7H195.2L160.9,50.5H351.1z M202.4,461.5l-2.1-20.8h111.5l-2.1,20.8H202.4z"/>
</svg>
